{"title":"Self.less.2015.WEBRip.480p.x264.AAC-VYTO [P2PDL]","uid":12305650,"size":411634105,"categoryP":"video","categoryS":"movies","magnet":"?xt=urn:btih:6281d336470b69efafd6d7114f0d4a06e31d0513&amp;dn=Self.less.2015.WEBRip.480p.x264.AAC-VYTO+%5BP2PDL%5D&amp;tr=udp%3A%2F%2Ftracker.openbittorrent.com%3A80&amp;tr=udp%3A%2F%2Fopen.demonii.com%3A1337&amp;tr=udp%3A%2F%2Ftracker.coppersurfer.tk%3A6969&amp;tr=udp%3A%2F%2Fexodus.desync.com%3A6969","seeders":12,"leechers":10,"uploader":"ValidusVyto","files":6,"time":1440793995,"description":"____    ____ ____    ____ .___________.  ______   \n     /   /      /   / |           | /  __    \n    /   /      /   /  `---|  |----`|  |  |  | \n        /     _    _/       |  |     |  |  |  | \n       /        |  |         |  |     |  `--'  | \n    __/         |__|         |__|      ______/  \n                                                  \nPresenting Small Encodes with quality for years!\n                                                                                                   \n                                                                                                   \n\nSelf.less.2015.WEBRip.480p.x264.AAC-VYTO\n\n\nGenre:  Mystery, Sci-Fi, Thriller &lt;a href=&quot;\nhttp://www.imdb.com/title/tt2140379/&quot; rel=&quot;nofollow&quot; target=&quot;_NEW&quot;&gt;\nhttp://www.imdb.com/title/tt2140379/&lt;/a&gt;\n\n\nGeneral\nFormat                         : MPEG-4\nFile size                      : 387 MiB\nDuration                       : 1h 52mn\nOverall bit rate               : 482 Kbps\n\nVideo\nFormat                         : AVC\nBit rate                       : 447 Kbps\nWidth                          : 720 pixels\nHeight                         : 400 pixels\nDisplay aspect ratio           : 16:9\nFrame rate mode                : Constant\nFrame rate                     : 25.000 fps\nBit depth                      : 8 bits\nStream size                    : 358 MiB (93%)\nWriting library                : x264 core 148 r2597 \n\nAudio\nFormat                         : AAC\nBit rate mode                  : Variable\nBit rate                       : 32.0 Kbps\nChannel(s)                     : 2 channels \nChannel positions              : Front: L R \nSampling rate                  : 44.1 KHz \nStream size                    : 25.7 MiB (7%)\nLanguage                       : English\n\nSubtitle                       : N/a\nSource                     \t   : 1080p.WEB-DL.AAC2.0.H264\n\nScreenshots:\n &lt;a href=&quot;\nhttp://ititli.com/YY&quot; rel=&quot;nofollow&quot; target=&quot;_NEW&quot;&gt;\nhttp://ititli.com/YY&lt;/a&gt; &lt;a href=&quot;\nhttp://ititli.com/Y4&quot; rel=&quot;nofollow&quot; target=&quot;_NEW&quot;&gt;\nhttp://ititli.com/Y4&lt;/a&gt; &lt;a href=&quot;\nhttp://ititli.com/YK&quot; rel=&quot;nofollow&quot; target=&quot;_NEW&quot;&gt;\nhttp://ititli.com/YK&lt;/a&gt; &lt;a href=&quot;\nhttp://ititli.com/YV&quot; rel=&quot;nofollow&quot; target=&quot;_NEW&quot;&gt;\nhttp://ititli.com/YV&lt;/a&gt; &lt;a href=&quot;\nhttp://ititli.com/Yt&quot; rel=&quot;nofollow&quot; target=&quot;_NEW&quot;&gt;\nhttp://ititli.com/Yt&lt;/a&gt; &lt;a href=&quot;\nhttp://ititli.com/YL&quot; rel=&quot;nofollow&quot; target=&quot;_NEW&quot;&gt;\nhttp://ititli.com/YL&lt;/a&gt; &lt;a href=&quot;\nhttp://ititli.com/Yd&quot; rel=&quot;nofollow&quot; target=&quot;_NEW&quot;&gt;\nhttp://ititli.com/Yd&lt;/a&gt; &lt;a href=&quot;\nhttp://ititli.com/Y0&quot; rel=&quot;nofollow&quot; target=&quot;_NEW&quot;&gt;\nhttp://ititli.com/Y0&lt;/a&gt; &lt;a href=&quot;\nhttp://ititli.com/YA&quot; rel=&quot;nofollow&quot; target=&quot;_NEW&quot;&gt;\nhttp://ititli.com/YA&lt;/a&gt; &lt;a href=&quot;\nhttp://ititli.com/Yl&quot; rel=&quot;nofollow&quot; target=&quot;_NEW&quot;&gt;\nhttp://ititli.com/Yl&lt;/a&gt; &lt;a href=&quot;\nhttp://ititli.com/Ym&quot; rel=&quot;nofollow&quot; target=&quot;_NEW&quot;&gt;\nhttp://ititli.com/Ym&lt;/a&gt; &lt;a href=&quot;\nhttp://ititli.com/Yx&quot; rel=&quot;nofollow&quot; target=&quot;_NEW&quot;&gt;\nhttp://ititli.com/Yx&lt;/a&gt;\n\n----------------------------------------------------------------------------------------------------\n\n\nEncoder Notes: Looking For Early Access To Anything You Can Provide DVDScr, R5, DVDR, BluRay, Direct\nAudio, Music Releases and Seedboxes. If You Got anything to offer please contact us.\n\nSupport us by donating BC - 1FgwdzPsd1y25Gea8wP1qni35uGCtmkRCD","torrent":{"xt":"urn:btih:6281d336470b69efafd6d7114f0d4a06e31d0513","amp;dn":"Self.less.2015.WEBRip.480p.x264.AAC-VYTO+%5BP2PDL%5D","amp;tr":["udp%3A%2F%2Ftracker.openbittorrent.com%3A80","udp%3A%2F%2Fopen.demonii.com%3A1337","udp%3A%2F%2Ftracker.coppersurfer.tk%3A6969","udp%3A%2F%2Fexodus.desync.com%3A6969"],"infoHash":"6281d336470b69efafd6d7114f0d4a06e31d0513","infoHashBuffer":{"type":"Buffer","data":[98,129,211,54,71,11,105,239,175,214,215,17,79,13,74,6,227,29,5,19]},"announce":[],"urlList":[]}}